<svg xmlns="http://www.w3.org/2000/svg" viewBox="0 0 295.526 295.526"><path d="M147.763 44.074c12.8 0 23.858-8.162 27.83-20.17-7.578 2.087-17.237 3.346-27.83 3.346-10.592 0-20.25-1.26-27.828-3.345 3.97 12.006 15.026 20.17 27.828 20.17z"/><path d="M295.158 58.84c-.608-1.707-1.873-3.11-3.52-3.874l-56.344-26.01c-11.985-4.06-24.195-7.267-36.524-9.61-.434-.086-.866-.127-1.292-.127-3.052 0-5.785 2.106-6.465 5.196-4.502 19.82-22.047 34.66-43.25 34.66-21.204 0-38.75-14.84-43.25-34.66-.69-3.09-3.417-5.197-6.467-5.197-.426 0-.858.04-1.292.125-12.328 2.344-24.538 5.55-36.542 9.61L3.89 54.966C2.23 55.73.956 57.132.377 58.838c-.6 1.726-.49 3.59.353 5.217l24.46 48.272c1.146 2.29 3.475 3.666 5.94 3.666.635 0 1.28-.092 1.916-.283l27.167-8.052v161.97c0 3.678 3 6.678 6.69 6.678h161.722c3.678 0 6.67-3 6.67-6.678V107.66l27.186 8.052c.637.19 1.28.283 1.916.283 2.46 0 4.78-1.375 5.94-3.666l24.47-48.273c.823-1.63.94-3.492.352-5.218z"/></svg>